<?xml version="1.0" encoding="UTF-8"?>
<svg xmlns="http://www.w3.org/2000/svg" xmlns:xlink="http://www.w3.org/1999/xlink" width="72pt" height="72pt" viewBox="0 0 72 72" version="1.1">
<g id="surface29">
<path style=" stroke:none;fill-rule:nonzero;fill:rgb(9.803922%,9.803922%,9.803922%);fill-opacity:1;" d="M 35.214844 2.96875 C 33.972656 2.988281 32.980469 4.007812 33 5.25 L 33 17.816406 L 27.839844 12.660156 C 27.277344 12.070312 26.4375 11.835938 25.648438 12.039062 C 24.863281 12.246094 24.246094 12.863281 24.039062 13.648438 C 23.835938 14.4375 24.070312 15.277344 24.660156 15.839844 L 33.660156 24.839844 C 34.539062 25.71875 35.960938 25.71875 36.839844 24.839844 L 45.839844 15.839844 C 46.429688 15.277344 46.664062 14.4375 46.460938 13.648438 C 46.253906 12.863281 45.636719 12.246094 44.851562 12.039062 C 44.0625 11.835938 43.222656 12.070312 42.660156 12.660156 L 37.5 17.816406 L 37.5 5.25 C 37.507812 4.640625 37.269531 4.054688 36.839844 3.625 C 36.410156 3.195312 35.824219 2.957031 35.214844 2.96875 Z M 11.25 28.5 C 10.4375 28.488281 9.683594 28.914062 9.273438 29.617188 C 8.867188 30.316406 8.867188 31.183594 9.273438 31.882812 C 9.683594 32.585938 10.4375 33.011719 11.25 33 L 60.75 33 C 61.5625 33.011719 62.316406 32.585938 62.726562 31.882812 C 63.132812 31.183594 63.132812 30.316406 62.726562 29.617188 C 62.316406 28.914062 61.5625 28.488281 60.75 28.5 Z M 11.25 39 C 10.4375 38.988281 9.683594 39.414062 9.273438 40.117188 C 8.867188 40.816406 8.867188 41.683594 9.273438 42.382812 C 9.683594 43.085938 10.4375 43.511719 11.25 43.5 L 60.75 43.5 C 61.5625 43.511719 62.316406 43.085938 62.726562 42.382812 C 63.132812 41.683594 63.132812 40.816406 62.726562 40.117188 C 62.316406 39.414062 61.5625 38.988281 60.75 39 Z M 35.21875 46.5 C 34.632812 46.507812 34.074219 46.746094 33.660156 47.160156 L 24.660156 56.160156 C 24.070312 56.722656 23.835938 57.5625 24.039062 58.351562 C 24.246094 59.136719 24.863281 59.753906 25.648438 59.960938 C 26.4375 60.164062 27.277344 59.929688 27.839844 59.339844 L 33 54.183594 L 33 66.75 C 32.988281 67.5625 33.414062 68.316406 34.117188 68.726562 C 34.816406 69.132812 35.683594 69.132812 36.382812 68.726562 C 37.085938 68.316406 37.511719 67.5625 37.5 66.75 L 37.5 54.183594 L 42.660156 59.339844 C 43.222656 59.929688 44.0625 60.164062 44.851562 59.960938 C 45.636719 59.753906 46.253906 59.136719 46.460938 58.351562 C 46.664062 57.5625 46.429688 56.722656 45.839844 56.160156 L 36.839844 47.160156 C 36.410156 46.730469 35.824219 46.492188 35.21875 46.5 Z M 35.21875 46.5 "/>
</g>
</svg>
