<?xml version="1.0" encoding="UTF-8"?>
<svg xmlns="http://www.w3.org/2000/svg" xmlns:xlink="http://www.w3.org/1999/xlink" width="36pt" height="36pt" viewBox="0 0 36 36" version="1.1">
<g id="surface33">
<path style=" stroke:none;fill-rule:nonzero;fill:rgb(9.803922%,9.803922%,9.803922%);fill-opacity:1;" d="M 17.625 3.75 C 8.828125 3.75 3 10.21875 3 16.875 C 3 19.433594 5.152344 21.75 7.875 21.75 C 8.996094 21.75 10.125 21.542969 11.089844 21.351562 C 12.054688 21.160156 12.933594 21 13.125 21 C 14.15625 21 14.414062 21.296875 14.820312 22.128906 C 15.226562 22.957031 15.496094 24.316406 15.847656 25.765625 C 16.199219 27.21875 16.652344 28.792969 17.730469 30.089844 C 18.8125 31.382812 20.554688 32.25 22.933594 32.25 C 27.390625 32.25 33 27.503906 33 19.125 C 33 10.648438 26.101562 3.75 17.625 3.75 Z M 17.625 6 C 24.886719 6 30.75 11.863281 30.75 19.125 C 30.75 26.484375 25.664062 30 22.933594 30 C 21.050781 30 20.140625 29.460938 19.460938 28.644531 C 18.78125 27.832031 18.367188 26.59375 18.035156 25.234375 C 17.703125 23.871094 17.46875 22.417969 16.839844 21.136719 C 16.214844 19.859375 14.90625 18.75 13.125 18.75 C 12.351562 18.75 11.582031 18.964844 10.652344 19.148438 C 9.722656 19.332031 8.707031 19.5 7.875 19.5 C 6.558594 19.5 5.25 18.039062 5.25 16.875 C 5.25 11.53125 9.921875 6 17.625 6 Z M 17.625 8.25 C 16.589844 8.25 15.75 9.089844 15.75 10.125 C 15.75 11.160156 16.589844 12 17.625 12 C 18.660156 12 19.5 11.160156 19.5 10.125 C 19.5 9.089844 18.660156 8.25 17.625 8.25 Z M 22.875 9.75 C 21.839844 9.75 21 10.589844 21 11.625 C 21 12.660156 21.839844 13.5 22.875 13.5 C 23.910156 13.5 24.75 12.660156 24.75 11.625 C 24.75 10.589844 23.910156 9.75 22.875 9.75 Z M 25.875 14.25 C 24.839844 14.25 24 15.089844 24 16.125 C 24 17.160156 24.839844 18 25.875 18 C 26.910156 18 27.75 17.160156 27.75 16.125 C 27.75 15.089844 26.910156 14.25 25.875 14.25 Z M 26.625 19.5 C 25.589844 19.5 24.75 20.339844 24.75 21.375 C 24.75 22.410156 25.589844 23.25 26.625 23.25 C 27.660156 23.25 28.5 22.410156 28.5 21.375 C 28.5 20.339844 27.660156 19.5 26.625 19.5 Z M 22.875 23.25 C 21.839844 23.25 21 24.089844 21 25.125 C 21 26.160156 21.839844 27 22.875 27 C 23.910156 27 24.75 26.160156 24.75 25.125 C 24.75 24.089844 23.910156 23.25 22.875 23.25 Z M 22.875 23.25 "/>
</g>
</svg>
