<?xml version="1.0" encoding="UTF-8"?>
<svg xmlns="http://www.w3.org/2000/svg" xmlns:xlink="http://www.w3.org/1999/xlink" width="72pt" height="72pt" viewBox="0 0 72 72" version="1.1">
<g id="surface37">
<path style=" stroke:none;fill-rule:nonzero;fill:rgb(9.803922%,9.803922%,9.803922%);fill-opacity:1;" d="M 30.75 9 C 18.765625 9 9 18.765625 9 30.75 C 9 42.734375 18.765625 52.5 30.75 52.5 C 35.933594 52.5 40.699219 50.667969 44.441406 47.625 L 59.160156 62.339844 C 59.722656 62.929688 60.5625 63.164062 61.351562 62.960938 C 62.136719 62.753906 62.753906 62.136719 62.960938 61.351562 C 63.164062 60.5625 62.929688 59.722656 62.339844 59.160156 L 47.625 44.441406 C 50.667969 40.699219 52.5 35.933594 52.5 30.75 C 52.5 18.765625 42.734375 9 30.75 9 Z M 30.75 13.5 C 40.304688 13.5 48 21.195312 48 30.75 C 48 35.402344 46.164062 39.609375 43.1875 42.707031 C 43.003906 42.839844 42.839844 43.003906 42.707031 43.1875 C 39.609375 46.164062 35.402344 48 30.75 48 C 21.195312 48 13.5 40.304688 13.5 30.75 C 13.5 21.195312 21.195312 13.5 30.75 13.5 Z M 30.75 13.5 "/>
</g>
</svg>
