<?xml version="1.0" encoding="UTF-8"?>
<svg xmlns="http://www.w3.org/2000/svg" xmlns:xlink="http://www.w3.org/1999/xlink" width="30pt" height="30pt" viewBox="0 0 30 30" version="1.1">
<g id="surface71">
<path style=" stroke:none;fill-rule:nonzero;fill:rgb(90.980393%,83.137256%,48.235294%);fill-opacity:1;" d="M 1.5 26.5 L 1.5 3.5 L 9.800781 3.5 L 12.800781 6.5 L 28.5 6.5 L 28.5 26.5 Z M 1.5 26.5 "/>
<path style=" stroke:none;fill-rule:nonzero;fill:rgb(72.941178%,60.784316%,28.235295%);fill-opacity:1;" d="M 9.601562 4 L 12.601562 7 L 28 7 L 28 26 L 2 26 L 2 4 L 9.601562 4 M 10 3 L 1 3 L 1 27 L 29 27 L 29 6 L 13 6 Z M 10 3 "/>
<path style=" stroke:none;fill-rule:nonzero;fill:rgb(100%,93.333334%,63.921571%);fill-opacity:1;" d="M 1.5 26.5 L 1.5 8.5 L 10.199219 8.5 L 13.199219 6.5 L 28.5 6.5 L 28.5 26.5 Z M 1.5 26.5 "/>
<path style=" stroke:none;fill-rule:nonzero;fill:rgb(72.941178%,60.784316%,28.235295%);fill-opacity:1;" d="M 28 7 L 28 26 L 2 26 L 2 9 L 10.300781 9 L 10.601562 8.800781 L 13.300781 7 L 28 7 M 29 6 L 13 6 L 10 8 L 1 8 L 1 27 L 29 27 Z M 29 6 "/>
<path style=" stroke:none;fill-rule:nonzero;fill:rgb(100%,93.333334%,63.921571%);fill-opacity:1;" d="M 18 6 L 29 6 L 29 17 L 18 17 Z M 10 25 L 20 25 L 20 27 L 10 27 Z M 10 25 "/>
<path style=" stroke:none;fill-rule:nonzero;fill:rgb(78.039217%,26.274511%,26.274511%);fill-opacity:1;" d="M 26 6 C 26 7.699219 27.300781 9 29 9 L 29 6 Z M 29 12 C 25.699219 12 23 9.300781 23 6 L 24 6 C 24 8.800781 26.199219 11 29 11 Z M 29 12 "/>
<path style=" stroke:none;fill-rule:nonzero;fill:rgb(78.039217%,26.274511%,26.274511%);fill-opacity:1;" d="M 29 15 C 24 15 20 11 20 6 L 21 6 C 21 10.398438 24.601562 14 29 14 Z M 29 15 "/>
<path style=" stroke:none;fill-rule:nonzero;fill:rgb(78.039217%,26.274511%,26.274511%);fill-opacity:1;" d="M 14 19 L 14 29 L 16 29 L 16 19 L 20 19 L 15 14 L 10 19 Z M 14 19 "/>
</g>
</svg>
